<svg xmlns="http://www.w3.org/2000/svg" width="1024" height="1024" viewBox="0 0 270.93 270.93"><defs><linearGradient id="a" x2="270.93" y1="135.47" y2="135.47" gradientUnits="userSpaceOnUse"><stop offset="0" stop-color="#3c0202"/><stop offset="1" stop-color="#1c0101"/></linearGradient></defs><path fill="url(#a)" d="M0 0h270.93v270.93H0z"/><path fill="#c10008" d="M116.88 47.137c0-8.183 9.82-12.377 15.734-6.714 18.207 17.445 28.789 55.747 16.273 84.806l-.745 1.617.105.026c5.812 1.237 11.187-3.998 21.416-20.207l1.3-2.084a9.299 9.299 0 0 1 14.712-1.423c12.405 13.344 24.186 40.7 24.186 58.304 0 39.66-33.392 71.648-74.391 71.648-41 0-74.392-31.988-74.392-71.657 0-20.941 9.503-43.854 24.475-58.593l5.626-5.477c2.242-2.194 4.035-3.999 5.747-5.803 13.297-14.06 19.946-27.19 19.946-44.449"/></svg>
