<svg xmlns="http://www.w3.org/2000/svg" xml:space="preserve" width="231" height="142" viewBox="0 0 61.118 37.57"><path fill="#c10008" d="M12.937 28.66v-2.714q-.136.425-.797 1.17-.644.747-1.78 1.358-1.12.593-2.646.593-1.934 0-3.51-.916-1.561-.915-2.494-2.56-.916-1.663-.916-3.884 0-2.222.916-3.867.933-1.662 2.493-2.578 1.577-.933 3.51-.933 1.51 0 2.612.543 1.12.543 1.781 1.255.679.712.797 1.221v-2.612h2.917V28.66zm-9.226-6.953q0 1.51.661 2.611.662 1.102 1.714 1.713 1.068.594 2.272.594 1.289 0 2.306-.61 1.018-.611 1.611-1.713.594-1.12.594-2.595 0-1.476-.594-2.578-.593-1.12-1.61-1.73-1.018-.627-2.307-.627-1.204 0-2.272.61-1.052.61-1.714 1.713-.661 1.102-.66 2.612zM26.42 36.105q-1.645 0-2.985-.34-1.323-.339-2.323-.966-.984-.61-1.577-1.442l1.933-1.848q.322.44.865.932.56.51 1.51.866t2.475.356q1.493 0 2.527-.645 1.035-.627 1.578-1.713.542-1.085.542-2.442v-.458h2.883v.645q0 2.306-1 3.867-.984 1.577-2.663 2.374-1.679.814-3.765.814zm4.545-7.445v-2.714q-.136.424-.797 1.17-.644.747-1.78 1.357-1.12.594-2.646.594-1.934 0-3.51-.916-1.561-.916-2.494-2.561-.916-1.662-.916-3.884 0-2.221.916-3.866.933-1.662 2.493-2.578 1.577-.933 3.51-.933 1.51 0 2.612.543 1.12.542 1.781 1.254.679.713.797 1.222v-2.612h2.917V28.66zm-9.226-6.954q0 1.51.662 2.612.66 1.102 1.713 1.713 1.068.593 2.272.593 1.289 0 2.306-.61 1.018-.61 1.611-1.713.594-1.12.594-2.595t-.594-2.577q-.593-1.12-1.61-1.73-1.018-.628-2.307-.628-1.204 0-2.272.61-1.052.611-1.713 1.714-.662 1.102-.662 2.611zM38.24 28.66V14.736h2.951V28.66zm15.246-14.331q1.374 0 2.663.576 1.306.577 2.137 1.832.848 1.238.848 3.24v8.682h-2.985v-8.106q0-2.07-.967-3.002-.967-.95-2.493-.95-1 0-1.933.577-.916.56-1.51 1.56-.593.984-.593 2.239v7.682H45.7V14.735h2.95v2.476q.153-.576.832-1.254.678-.679 1.73-1.154 1.051-.475 2.272-.475zM38.788 2.077c0-.43.516-.65.827-.353.956.916 1.512 2.929.855 4.455l-.04.085.006.001c.305.065.587-.21 1.125-1.061l.068-.11a.488.488 0 0 1 .773-.074c.652.7 1.27 2.137 1.27 3.062 0 2.083-1.753 3.764-3.907 3.764s-3.908-1.68-3.908-3.764c0-1.1.5-2.304 1.286-3.078l.295-.288c.118-.115.212-.21.302-.304.699-.74 1.048-1.429 1.048-2.335"/></svg>
